<?xml version="1.0" encoding="UTF-8"?>
<svg id="Layer_2" data-name="Layer 2" xmlns="http://www.w3.org/2000/svg" viewBox="0 0 456.28 78.59">
  <defs>
    <style>
      .cls-1 {
        fill: #ffa229;
      }

      .cls-2 {
        fill: #fff;
      }

      .cls-3 {
        fill: #231f20;
      }

      .cls-4 {
        fill: #ed1c24;
      }

      .cls-5 {
        fill: #880d1e;
      }
    </style>
  </defs>
  <g id="Layer_1-2" data-name="Layer 1">
    <g>
      <path class="cls-1" d="M140.71,48.85c0,11.05-11.35,14.42-21.11,14.42-8.28,0-17.3-2.7-22.09-5.83l4.91-9.39c5.52,3.5,24.18,7.3,24.18,1.29,0-7.73-27-1.6-27-19.02,0-9.82,9.27-14.73,19.82-14.73,7.42,0,13.68,1.96,19.45,5.58l-5.15,9.2c-8.96-5.95-20.25-5.52-20.25-.37,0,6.38,27.24,1.66,27.24,18.84Z"/>
      <path class="cls-1" d="M150.52,38.42h-6.44v-7.98h6.44v-7.73h13.19v7.73h6.44v7.98h-6.44v23.93h-13.19v-23.93Z"/>
      <path class="cls-1" d="M172.68,46.03c0-9.57,5.4-16.51,13.13-16.51,6.07,0,9.08,3.93,9.08,8.04,0,3.74-1.78,5.4-3.56,5.71.18-.49.25-.98.25-1.47,0-1.29-.68-3.07-2.27-3.07-2.15,0-3.44,2.95-3.44,5.89,0,4.79,2.09,7.73,5.22,7.73,3.31,0,6.07-3.74,6.07-10.25v-11.66h13.19v31.91h-11.41c-1.66,0-1.78-.43-1.78-1.23,0-2.09,4.91-5.09,4.91-12.46h-1.47c0,4.42-4.05,14.3-13.87,14.3-10.62,0-14.05-9.08-14.05-16.94Z"/>
      <path class="cls-2" d="M261.77,62.35h-14.36c0-9.63-.31-14.73-8.9-14.73h-6.63v14.67h-13.5V16.95h25.16c14.05,0,17.55,6.93,17.55,13.19,0,8.47-4.97,11.66-11.23,11.66h-4.97v1.84h4.97c12.52,0,11.9,12.21,11.9,18.71ZM241.21,38.11c4.54,0,6.38-2.64,6.38-5.83s-1.96-5.83-6.38-5.83h-9.33v11.66h9.33Z"/>
      <path class="cls-2" d="M284.47,62.97c-11.04,0-18.71-6.93-18.71-16.38,0-8.53,7.06-17.06,18.04-17.06s17.92,7.3,17.3,17.86h-22.21c0,4.54,3.07,6.26,6.57,6.26,2.64,0,5.03-1.41,6.01-3.37l9.7,4.17c-2.7,5.28-9.02,8.53-16.69,8.53ZM290.36,44.01c0-1.96-1.66-4.79-5.65-4.79s-5.65,2.82-5.65,4.79h11.29Z"/>
      <path class="cls-2" d="M314.54,62.84l-12.46-32.4h12.82c6.01,16.81,6.01,19.21,5.46,22.46h1.84c-.55-3.25-.55-5.65,5.46-22.46h13.01l-12.64,32.4h-13.5Z"/>
      <path class="cls-2" d="M350.92,15.23c4.05,0,7.3,2.64,7.3,5.95s-3.25,5.95-7.3,5.95-7.3-2.64-7.3-5.95,3.19-5.95,7.3-5.95ZM357.55,62.35h-13.19v-31.91h13.19v31.91Z"/>
      <path class="cls-2" d="M381.85,62.97c-11.04,0-18.71-6.93-18.71-16.38,0-8.53,7.06-17.06,18.04-17.06s17.92,7.3,17.3,17.86h-22.21c0,4.54,3.07,6.26,6.57,6.26,2.64,0,5.03-1.41,6.01-3.37l9.7,4.17c-2.7,5.28-9.02,8.53-16.69,8.53ZM387.74,44.01c0-1.96-1.66-4.79-5.65-4.79s-5.65,2.82-5.65,4.79h11.29Z"/>
      <path class="cls-2" d="M428.05,43.94h-1.41c-2.45,8.41.37,12.27.37,17.98,0,.74-.12.92-1.78.92h-16.14l-8.59-32.4h12.39l5.77,21.23h1.6c-2.95-9.69-.98-21.29,11.29-21.23l6.07,21.23h1.6c-3.37-8.71-2.52-21.84,10.98-21.84,3.56,0,6.07.49,6.07.49l-3.44,11.97s-1.35-.43-2.45-.43c-2.76,0-4.05,2.21-3.99,5.52.06,4.97,3.37,11.54,3.37,13.81,0,.86-.25,1.66-1.78,1.66h-9.57c-4.05,0-10.98-8.28-10.37-18.9Z"/>
    </g>
    <g id="Starzinha">
      <path id="Estrela" class="cls-1" d="M44.75,2.93l7.75,23.84h25.07c4.11,0,5.82,5.26,2.49,7.67l-20.28,14.74,7.75,23.84c1.27,3.91-3.2,7.15-6.52,4.74l-20.28-14.74-20.28,14.74c-3.32,2.41-7.79-.83-6.52-4.74l7.75-23.84L1.76,26.67c-3.32-2.41-1.62-7.67,2.49-7.67l24.69,7.77,7.75-23.84c1.27-3.91,6.8-3.91,8.06,0Z"/>
      <g id="Olhos">
        <g id="Olho_direito" data-name="Olho direito">
          <path class="cls-2" d="M38.37,30.73c-.02.19-.04.39-.07.57-.13.75-.94,1.14-1.63.84-.59-.26-1.22-.42-1.9-.47s-1.29,0-1.89.16c-.72.18-1.44-.33-1.45-1.07,0-.19,0-.37.02-.56.2-2.56,1.82-3.83,3.73-3.69s3.4,1.67,3.2,4.23Z"/>
          <circle class="cls-5" cx="35.01" cy="29.71" r="1.95"/>
        </g>
        <g id="Olho_esquerdo" data-name="Olho esquerdo">
          <path class="cls-2" d="M41.93,30.64c.02.19.04.39.07.57.13.75.94,1.14,1.63.84.59-.26,1.22-.42,1.9-.47s1.29,0,1.89.16c.72.18,1.44-.33,1.45-1.07,0-.19,0-.37-.02-.56-.2-2.56-1.82-3.83-3.73-3.69s-3.4,1.67-3.2,4.23Z"/>
          <circle class="cls-5" cx="45.3" cy="29.62" r="1.95"/>
        </g>
      </g>
      <g id="Boca">
        <path class="cls-3" d="M45.61,38.84c-.28,1.44-1.08,2.66-2.16,3.48-.81-1.36-2.18-2.38-3.85-2.71s-3.33.12-4.58,1.07c-.7-1.17-.99-2.6-.71-4.04,0,0,0-.02,0-.03.19-.95,1.43-1.23,2.01-.45.83,1.11,2.05,1.92,3.51,2.2s2.9-.02,4.08-.73c.83-.5,1.88.22,1.7,1.17,0,0,0,.02,0,.03Z"/>
        <path class="cls-4" d="M43.44,42.33c-1.26.96-2.91,1.4-4.59,1.07s-3.04-1.35-3.85-2.71c1.26-.96,2.91-1.4,4.58-1.07s3.04,1.35,3.85,2.71Z"/>
      </g>
    </g>
  </g>
</svg>